<?xml version="1.0" encoding="UTF-8"?>
<svg version="1.1" xmlns="http://www.w3.org/2000/svg" width="150" height="150">
<path d="M0 0 C1.64730103 0.01740234 1.64730103 0.01740234 3.32788086 0.03515625 C22.81463829 0.42856514 38.86871287 7.53685583 53.125 20.75 C54.3315625 22.049375 54.3315625 22.049375 55.5625 23.375 C56.15546875 23.95121094 56.7484375 24.52742188 57.359375 25.12109375 C71.42270971 39.53873728 76.19085523 58.6885632 75.9609375 78.26318359 C75.4693805 95.97259322 69.64288714 112.15120173 57.5625 125.375 C56.81226563 126.20515625 56.06203125 127.0353125 55.2890625 127.890625 C46.45710804 137.1962174 36.60423763 143.07775245 24.5625 147.375 C23.71042969 147.69597656 22.85835938 148.01695312 21.98046875 148.34765625 C2.60786992 154.4459121 -19.06622786 150.72321837 -36.72924805 141.63720703 C-54.07505623 132.21463473 -66.41267089 116.47499259 -72.27368164 97.69580078 C-74.33817728 90.23670156 -74.94840389 83.22002428 -74.875 75.5 C-74.86146484 73.78611084 -74.86146484 73.78611084 -74.84765625 72.03759766 C-74.67243834 63.49450789 -73.84501559 56.29387425 -70.4375 48.375 C-70.16373535 47.7341748 -69.8899707 47.09334961 -69.60791016 46.43310547 C-61.09153877 26.94007764 -47.64603073 13.62146715 -28.3984375 4.8125 C-19.05122746 1.19078191 -9.98367633 -0.13601107 0 0 Z M-56.75 32.125 C-69.23994896 48.51805801 -72.67359481 68.44680426 -70.16064453 88.59472656 C-66.92465968 107.45982972 -55.18851283 123.1629188 -40.2265625 134.5625 C-23.37277209 145.51510329 -4.03460555 149.15431646 15.7890625 145.75390625 C34.65045473 141.28673441 50.98325717 129.65426591 61.5625 113.375 C71.51203931 95.80218006 74.75206367 76.23787992 70.0625 56.4375 C64.27154316 38.11628463 52.2598757 21.57400476 35.0234375 12.4375 C1.79844301 -4.25852018 -32.97273084 4.70370491 -56.75 32.125 Z " fill="#FFFFFF" transform="translate(74.4375,-0.375)"/>
<path d="M0 0 C5.7830272 4.76994214 8.59946948 9.08609872 9.640625 16.578125 C10.20983437 25.47959073 8.28259539 33.95764747 2.4140625 40.828125 C-2.31127876 45.48628131 -5.84807305 46.67758818 -12.546875 46.765625 C-17.8628335 46.63889575 -17.8628335 46.63889575 -20.234375 45.453125 C-20.53730469 46.31035156 -20.84023437 47.16757813 -21.15234375 48.05078125 C-23.5379318 54.56160157 -25.848591 60.06487609 -30.234375 65.453125 C-31.554375 65.123125 -32.874375 64.793125 -34.234375 64.453125 C-34.61735372 46.11269947 -34.61735372 46.11269947 -32.234375 37.453125 C-33.12125 37.411875 -34.008125 37.370625 -34.921875 37.328125 C-39.51206197 36.11562278 -40.53761547 34.30563861 -43.234375 30.453125 C-45.3545583 24.0925751 -45.45175104 16.07913375 -42.546875 9.953125 C-38.56338505 3.29999793 -32.82613592 -1.34962136 -25.484375 -3.796875 C-16.6004286 -5.6751951 -7.63106173 -5.28304274 0 0 Z M-37.234375 8.453125 C-40.46351579 14.03073181 -41.90753955 19.07456634 -40.78515625 25.46875 C-40.02460085 28.20890703 -39.0642067 30.27140258 -37.234375 32.453125 C-36.244375 32.453125 -35.254375 32.453125 -34.234375 32.453125 C-34.55664062 31.73769531 -34.87890625 31.02226563 -35.2109375 30.28515625 C-37.32698526 24.42968057 -37.19790509 17.82272836 -34.734375 12.078125 C-32.13733494 7.72584407 -29.06332884 5.06030749 -24.234375 3.453125 C-18.44026552 2.70571133 -11.74284908 1.96313709 -6.546875 5.140625 C-1.93267127 9.75482873 -0.8035411 13.23950906 -0.796875 19.765625 C-0.82716688 25.99590828 -1.92094328 30.1723432 -5.234375 35.453125 C-5.234375 36.113125 -5.234375 36.773125 -5.234375 37.453125 C-9.06706757 39.25674503 -12.00286835 39.89390694 -16.234375 39.453125 C-19.109375 37.953125 -19.109375 37.953125 -21.234375 36.453125 C-20.22387488 39.11717076 -19.26203915 40.43020328 -17.046875 42.265625 C-13.26865858 43.86087193 -11.17909347 43.49120881 -7.234375 42.453125 C-0.43497414 38.72012061 3.02594518 34.16598098 5.22265625 26.84765625 C6.67814523 20.42884515 6.36608783 15.09475708 3.09765625 9.30859375 C-0.52064153 4.26844288 -5.07926609 0.63679979 -11.234375 -0.546875 C-21.46840771 -1.5686817 -30.05147404 0.76909142 -37.234375 8.453125 Z M-30.109375 11.140625 C-32.50410019 14.87357898 -34.0625572 17.98586226 -34.234375 22.453125 C-33.58300863 25.18466139 -32.65484456 26.96730326 -31.234375 29.453125 C-30.574375 29.783125 -29.914375 30.113125 -29.234375 30.453125 C-29.26917969 29.57269531 -29.30398437 28.69226563 -29.33984375 27.78515625 C-29.36691406 26.62371094 -29.39398438 25.46226563 -29.421875 24.265625 C-29.45667969 23.11707031 -29.49148437 21.96851562 -29.52734375 20.78515625 C-29.20761033 17.1487215 -28.41595773 15.3425336 -26.234375 12.453125 C-23.43567473 11.05377487 -21.32938708 11.20047095 -18.234375 11.453125 C-16.359375 12.515625 -16.359375 12.515625 -15.234375 14.453125 C-14.74197556 19.57407917 -15.81385423 23.57008485 -17.234375 28.453125 C-17.56951094 31.66292636 -17.56951094 31.66292636 -17.234375 34.453125 C-15.37353112 36.76397786 -15.37353112 36.76397786 -12.421875 36.578125 C-8.29548379 35.12175163 -7.2711047 33.2355491 -5.203125 29.50390625 C-4.06263474 27.08956194 -3.43970442 25.12240744 -3.234375 22.453125 C-3.13125 21.339375 -3.028125 20.225625 -2.921875 19.078125 C-3.30017542 14.68984018 -4.20909704 11.70529881 -7.234375 8.453125 C-15.23878678 3.81122226 -23.42714455 4.89419219 -30.109375 11.140625 Z M-23.234375 14.453125 C-25.10228321 16.55815109 -26.19966108 17.79934623 -26.3515625 20.66015625 C-26.27164063 21.51996094 -26.19171875 22.37976563 -26.109375 23.265625 C-25.86381216 30.88751769 -27.69548289 37.97412042 -29.45654297 45.35473633 C-30.58548309 50.145681 -31.5709702 54.48834581 -31.234375 59.453125 C-25.90350031 52.93422681 -23.85808921 44.71733824 -23.234375 36.453125 C-22.574375 36.453125 -21.914375 36.453125 -21.234375 36.453125 C-19.86671495 29.46876399 -18.81913556 22.54719394 -18.234375 15.453125 C-19.884375 15.123125 -21.534375 14.793125 -23.234375 14.453125 Z M-31.234375 31.453125 C-30.234375 34.453125 -30.234375 34.453125 -30.234375 34.453125 Z " fill="#FFFFFF" transform="translate(94.234375,44.546875)"/>
</svg>
