<?xml version="1.0" encoding="UTF-8"?>
<svg version="1.1" xmlns="http://www.w3.org/2000/svg" width="150" height="150">
<path d="M0 0 C1.64730103 0.01740234 1.64730103 0.01740234 3.32788086 0.03515625 C22.81463829 0.42856514 38.86871287 7.53685583 53.125 20.75 C54.3315625 22.049375 54.3315625 22.049375 55.5625 23.375 C56.15546875 23.95121094 56.7484375 24.52742188 57.359375 25.12109375 C71.42270971 39.53873728 76.19085523 58.6885632 75.9609375 78.26318359 C75.4693805 95.97259322 69.64288714 112.15120173 57.5625 125.375 C56.81226563 126.20515625 56.06203125 127.0353125 55.2890625 127.890625 C46.45710804 137.1962174 36.60423763 143.07775245 24.5625 147.375 C23.71042969 147.69597656 22.85835938 148.01695312 21.98046875 148.34765625 C2.60786992 154.4459121 -19.06622786 150.72321837 -36.72924805 141.63720703 C-54.07505623 132.21463473 -66.41267089 116.47499259 -72.27368164 97.69580078 C-74.33817728 90.23670156 -74.94840389 83.22002428 -74.875 75.5 C-74.86146484 73.78611084 -74.86146484 73.78611084 -74.84765625 72.03759766 C-74.67243834 63.49450789 -73.84501559 56.29387425 -70.4375 48.375 C-70.16373535 47.7341748 -69.8899707 47.09334961 -69.60791016 46.43310547 C-61.09153877 26.94007764 -47.64603073 13.62146715 -28.3984375 4.8125 C-19.05122746 1.19078191 -9.98367633 -0.13601107 0 0 Z M-56.75 32.125 C-69.23994896 48.51805801 -72.67359481 68.44680426 -70.16064453 88.59472656 C-66.92465968 107.45982972 -55.18851283 123.1629188 -40.2265625 134.5625 C-23.37277209 145.51510329 -4.03460555 149.15431646 15.7890625 145.75390625 C34.65045473 141.28673441 50.98325717 129.65426591 61.5625 113.375 C71.51203931 95.80218006 74.75206367 76.23787992 70.0625 56.4375 C64.27154316 38.11628463 52.2598757 21.57400476 35.0234375 12.4375 C1.79844301 -4.25852018 -32.97273084 4.70370491 -56.75 32.125 Z " fill="#FFFFFF" transform="translate(74.4375,-0.375)"/>
<path d="M0 0 C1.56427734 0.02320313 1.56427734 0.02320313 3.16015625 0.046875 C5.9375 0.25 5.9375 0.25 8.9375 1.25 C10.13945977 3.88895623 11.1864636 6.47371929 12.1875 9.1875 C16.41695352 20.90030211 16.41695352 20.90030211 24.9375 29.25 C24.68171622 26.35212027 24.40849197 23.45768966 24.125 20.5625 C24.05474609 19.74587891 23.98449219 18.92925781 23.91210938 18.08789062 C23.43300987 13.35438748 22.68462729 10.25125062 19.9375 6.25 C19.75 3.4375 19.75 3.4375 19.9375 1.25 C23.58129989 -0.57189994 27.86332485 0.02239595 31.875 0 C32.79474609 -0.020625 33.71449219 -0.04125 34.66210938 -0.0625 C35.54576172 -0.06765625 36.42941406 -0.0728125 37.33984375 -0.078125 C38.14929443 -0.0874707 38.95874512 -0.09681641 39.79272461 -0.10644531 C41.9375 0.25 41.9375 0.25 43.69287109 1.46508789 C45.30980213 3.78391543 45.3639293 5.32216701 45.44921875 8.13671875 C45.48466797 9.07451172 45.52011719 10.01230469 45.55664062 10.97851562 C45.59047852 12.44321289 45.59047852 12.44321289 45.625 13.9375 C45.65916016 14.92556641 45.69332031 15.91363281 45.72851562 16.93164062 C45.81100538 19.37098053 45.88015068 21.80996063 45.9375 24.25 C50.994204 18.19245355 54.86212798 12.00616266 58.45703125 4.97265625 C59.9375 2.25 59.9375 2.25 61.9375 0.25 C64.46542663 0.02444919 66.84805576 -0.07438591 69.375 -0.0625 C70.3969043 -0.08666992 70.3969043 -0.08666992 71.43945312 -0.11132812 C74.25370605 -0.11408449 76.46397785 -0.00175746 78.97265625 1.33203125 C80.58435608 4.53585562 79.77966071 6.83871613 78.9375 10.25 C77.73988376 12.70552438 76.54617683 14.93897561 75.125 17.25 C74.78146484 17.8275 74.43792969 18.405 74.08398438 19 C73.39393185 20.16001325 72.69979723 21.31760859 72.00146484 22.47265625 C70.26608715 25.37158916 68.60525728 28.31174897 66.9375 31.25 C67.68515625 32.03503906 68.4328125 32.82007813 69.203125 33.62890625 C70.19827223 34.68977075 71.19304386 35.75098765 72.1875 36.8125 C72.67863281 37.32619141 73.16976562 37.83988281 73.67578125 38.36914062 C77.62095596 42.60362814 81.52559203 47.16069021 82.3125 53.0625 C81.9375 55.25 81.9375 55.25 79.9375 57.25 C72.65376035 58.37115414 64.93336992 59.41652544 58.734375 54.93359375 C56.1875 52 56.1875 52 54.078125 49.046875 C51.60922446 45.82108524 49.39056769 44.32184062 45.9375 42.25 C45.98390625 42.99765625 46.0303125 43.7453125 46.078125 44.515625 C46.13226563 45.99289063 46.13226563 45.99289063 46.1875 47.5 C46.23390625 48.47453125 46.2803125 49.4490625 46.328125 50.453125 C45.9375 53.25 45.9375 53.25 44.2734375 55.578125 C39.91355351 58.69857709 35.06421509 57.85911466 29.9375 57.25 C16.8938259 54.18090021 8.03908251 44.29991748 1.1796875 33.35546875 C-1.11014409 29.47427621 -3.15410036 25.48855093 -5.125 21.4375 C-5.5072876 20.66172607 -5.8895752 19.88595215 -6.28344727 19.08666992 C-8.6298175 14.02951269 -10.53778862 8.91299772 -10.0625 3.25 C-7.35836347 -0.3012971 -4.24418267 -0.10518421 0 0 Z M-5.0625 4.25 C-7.02234058 10.12952174 -2.82000555 16.69482828 -0.16503906 22.06542969 C6.82753674 35.49030206 15.19073644 48.22856115 30.1875 53.25 C34.04777443 54.24698426 37.05408123 54.44489808 40.9375 53.25 C42.65617343 51.53132657 42.26670599 49.15786781 42.4375 46.8125 C42.82757634 41.46984733 42.82757634 41.46984733 43.9375 39.25 C50.67477161 39.10353757 53.82830279 42.34435979 58.60546875 46.828125 C60.9375 49.25 60.9375 49.25 62.84765625 52.02734375 C64.7843335 54.53966304 64.7843335 54.53966304 67.953125 54.73828125 C69.55414063 54.65126953 69.55414063 54.65126953 71.1875 54.5625 C72.26515625 54.51738281 73.3428125 54.47226563 74.453125 54.42578125 C75.27296875 54.36777344 76.0928125 54.30976562 76.9375 54.25 C77.4325 53.26 77.4325 53.26 77.9375 52.25 C74.10897439 46.03427606 69.83469459 40.79964206 64.6953125 35.609375 C62.9375 33.25 62.9375 33.25 62.37890625 30.91796875 C63.21654216 26.91723219 65.39352862 24.09976119 67.75 20.8125 C72.36026469 14.33174053 72.36026469 14.33174053 75.9375 7.25 C75.4425 5.765 75.4425 5.765 74.9375 4.25 C71.3075 4.25 67.6775 4.25 63.9375 4.25 C63.28523438 5.46816406 62.63296875 6.68632813 61.9609375 7.94140625 C61.0785666 9.56534419 60.19572914 11.18902868 59.3125 12.8125 C58.67248047 14.01229492 58.67248047 14.01229492 58.01953125 15.23632812 C55.24058536 20.31723665 52.30187169 25.35353895 47.9375 29.25 C45.125 29.75 45.125 29.75 42.9375 29.25 C41.25894032 27.57144032 41.72954436 25.45956432 41.65625 23.15625 C41.60017578 21.61130859 41.60017578 21.61130859 41.54296875 20.03515625 C41.47265625 17.84505208 41.40234375 15.65494792 41.33203125 13.46484375 C41.27595703 11.91990234 41.27595703 11.91990234 41.21875 10.34375 C41.18845703 9.39177734 41.15816406 8.43980469 41.12695312 7.45898438 C41.17864598 5.27644685 41.17864598 5.27644685 39.9375 4.25 C37.24095146 4.17680379 34.57058542 4.15757463 31.875 4.1875 C30.73708008 4.19426758 30.73708008 4.19426758 29.57617188 4.20117188 C27.69658129 4.2129932 25.81703101 4.23092922 23.9375 4.25 C24.42863281 4.99507812 24.91976562 5.74015625 25.42578125 6.5078125 C27.87668124 11.40961247 27.25333232 16.78111077 27.125 22.125 C27.10469727 23.72988281 27.10469727 23.72988281 27.08398438 25.3671875 C27.04878624 27.99531511 26.99954693 30.62239194 26.9375 33.25 C24.6171875 33.4140625 24.6171875 33.4140625 21.9375 33.25 C14.76287979 26.69925981 11.00755189 17.19460381 7.29296875 8.375 C6.24514419 5.43519996 6.24514419 5.43519996 4.9375 4.25 C3.25141034 4.17794489 1.56249341 4.16613932 -0.125 4.1875 C-1.04410156 4.19652344 -1.96320312 4.20554688 -2.91015625 4.21484375 C-3.62042969 4.22644531 -4.33070312 4.23804688 -5.0625 4.25 Z " fill="#FFFFFF" transform="translate(39.0625,45.75)"/>
</svg>
