<?xml version="1.0" encoding="UTF-8"?>
<svg version="1.1" xmlns="http://www.w3.org/2000/svg" width="150" height="150">
<path d="M0 0 C1.64730103 0.01740234 1.64730103 0.01740234 3.32788086 0.03515625 C22.81463829 0.42856514 38.86871287 7.53685583 53.125 20.75 C54.3315625 22.049375 54.3315625 22.049375 55.5625 23.375 C56.15546875 23.95121094 56.7484375 24.52742188 57.359375 25.12109375 C71.42270971 39.53873728 76.19085523 58.6885632 75.9609375 78.26318359 C75.4693805 95.97259322 69.64288714 112.15120173 57.5625 125.375 C56.81226563 126.20515625 56.06203125 127.0353125 55.2890625 127.890625 C46.45710804 137.1962174 36.60423763 143.07775245 24.5625 147.375 C23.71042969 147.69597656 22.85835938 148.01695312 21.98046875 148.34765625 C2.60786992 154.4459121 -19.06622786 150.72321837 -36.72924805 141.63720703 C-54.07505623 132.21463473 -66.41267089 116.47499259 -72.27368164 97.69580078 C-74.33817728 90.23670156 -74.94840389 83.22002428 -74.875 75.5 C-74.86146484 73.78611084 -74.86146484 73.78611084 -74.84765625 72.03759766 C-74.67243834 63.49450789 -73.84501559 56.29387425 -70.4375 48.375 C-70.16373535 47.7341748 -69.8899707 47.09334961 -69.60791016 46.43310547 C-61.09153877 26.94007764 -47.64603073 13.62146715 -28.3984375 4.8125 C-19.05122746 1.19078191 -9.98367633 -0.13601107 0 0 Z M-56.75 32.125 C-69.23994896 48.51805801 -72.67359481 68.44680426 -70.16064453 88.59472656 C-66.92465968 107.45982972 -55.18851283 123.1629188 -40.2265625 134.5625 C-23.37277209 145.51510329 -4.03460555 149.15431646 15.7890625 145.75390625 C34.65045473 141.28673441 50.98325717 129.65426591 61.5625 113.375 C71.51203931 95.80218006 74.75206367 76.23787992 70.0625 56.4375 C64.27154316 38.11628463 52.2598757 21.57400476 35.0234375 12.4375 C1.79844301 -4.25852018 -32.97273084 4.70370491 -56.75 32.125 Z " fill="#FFFFFF" transform="translate(74.4375,-0.375)"/>
<path d="M0 0 C1.05822464 -0.00960754 2.11644928 -0.01921509 3.20674133 -0.02911377 C4.34532089 -0.03336365 5.48390045 -0.03761353 6.65698242 -0.04199219 C7.83330734 -0.04769226 9.00963226 -0.05339233 10.22160339 -0.05926514 C12.71055198 -0.06870965 15.19951304 -0.07524694 17.68847656 -0.07910156 C21.48744629 -0.08880333 25.2858741 -0.1198313 29.0847168 -0.15136719 C31.50463546 -0.1578979 33.924558 -0.1631481 36.34448242 -0.16699219 C37.47698929 -0.17933899 38.60949615 -0.19168579 39.77632141 -0.20440674 C47.43011131 -0.18289303 52.5098977 0.46730988 58.51245117 5.53613281 C62.72214866 10.5877698 63.01762726 15.27830433 63.03588867 21.68066406 C63.04587387 22.90676643 63.04587387 22.90676643 63.05606079 24.15763855 C63.06615996 25.88314575 63.07087866 27.60869179 63.07055664 29.33422852 C63.07492003 31.95493021 63.11123947 34.5739329 63.14916992 37.19433594 C63.1550409 38.87727294 63.15900841 40.56021787 63.16088867 42.24316406 C63.1752597 43.01739212 63.18963074 43.79162018 63.20443726 44.58930969 C63.15834417 50.16283915 61.88252341 54.53408716 58.69995117 59.16113281 C53.65442422 63.26062346 49.75604959 64.27556445 43.39990234 64.32226562 C41.81256538 64.33667694 41.81256538 64.33667694 40.19316101 64.35137939 C39.05458145 64.35562927 37.91600189 64.35987915 36.74291992 64.36425781 C35.566595 64.36995789 34.39027008 64.37565796 33.17829895 64.38153076 C30.68935036 64.39097527 28.2003893 64.39751256 25.71142578 64.40136719 C21.91245605 64.41106896 18.11402824 64.44209692 14.31518555 64.47363281 C11.89526688 64.48016352 9.47534435 64.48541373 7.05541992 64.48925781 C5.35665962 64.50777802 5.35665962 64.50777802 3.62358093 64.52667236 C-4.03020897 64.50515866 -9.10999536 63.85495574 -15.11254883 58.78613281 C-19.32224632 53.73449582 -19.61772492 49.0439613 -19.63598633 42.64160156 C-19.64264313 41.82419998 -19.64929993 41.0067984 -19.65615845 40.16462708 C-19.66625761 38.43911988 -19.67097632 36.71357383 -19.6706543 34.98803711 C-19.67501769 32.36733541 -19.71133713 29.74833272 -19.74926758 27.12792969 C-19.75513856 25.44499269 -19.75910607 23.76204775 -19.76098633 22.07910156 C-19.77535736 21.3048735 -19.78972839 20.53064545 -19.80453491 19.73295593 C-19.75844182 14.15942647 -18.48262107 9.78817847 -15.30004883 5.16113281 C-10.25452188 1.06164216 -6.35614725 0.04670118 0 0 Z M-12.30004883 9.16113281 C-15.30908613 13.65284962 -15.7446682 17.69649272 -15.69848633 22.97363281 C-15.70135651 23.70557861 -15.70422668 24.43752441 -15.70718384 25.19165039 C-15.7092153 26.73129047 -15.70374995 28.27095691 -15.69116211 29.81054688 C-15.67509386 32.15456366 -15.69104059 34.49685655 -15.71020508 36.84082031 C-15.70822248 38.34342825 -15.70437846 39.84603512 -15.69848633 41.34863281 C-15.70455902 42.04255127 -15.71063171 42.73646973 -15.71688843 43.45141602 C-15.63044268 49.49286009 -14.22837907 53.27834132 -9.90161133 57.50292969 C-4.53308524 59.97466431 0.48136818 59.73264608 6.32495117 59.69238281 C7.54520996 59.69620972 8.76546875 59.70003662 10.02270508 59.70397949 C12.59807156 59.70669682 15.17346573 59.69934836 17.7487793 59.68261719 C21.68625539 59.66120728 25.6219067 59.68242738 29.55932617 59.70800781 C32.06453852 59.70536451 34.56974974 59.70023948 37.07495117 59.69238281 C38.83766357 59.7045282 38.83766357 59.7045282 40.63598633 59.71691895 C48.92070146 59.6407486 48.92070146 59.6407486 55.69995117 55.16113281 C58.70898847 50.66941601 59.14457054 46.6257729 59.09838867 41.34863281 C59.10125885 40.61668701 59.10412903 39.88474121 59.10708618 39.13061523 C59.10911764 37.59097515 59.1036523 36.05130872 59.09106445 34.51171875 C59.0749962 32.16770197 59.09094294 29.82540907 59.11010742 27.48144531 C59.10812483 25.97883738 59.10428081 24.4762305 59.09838867 22.97363281 C59.10446136 22.27971436 59.11053406 21.5857959 59.11679077 20.87084961 C59.03034502 14.82940554 57.62828141 11.04392431 53.30151367 6.81933594 C47.93298758 4.34760131 42.91853417 4.58961954 37.07495117 4.62988281 C35.85469238 4.62605591 34.63443359 4.622229 33.37719727 4.61828613 C30.80183078 4.61556881 28.22643662 4.62291726 25.65112305 4.63964844 C21.71364695 4.66105834 17.77799565 4.63983825 13.84057617 4.61425781 C11.33536382 4.61690112 8.8301526 4.62202615 6.32495117 4.62988281 C4.56223877 4.61773743 4.56223877 4.61773743 2.76391602 4.60534668 C-5.52079911 4.68151703 -5.52079911 4.68151703 -12.30004883 9.16113281 Z " fill="#FFFFFF" transform="translate(53.300048828125,42.8388671875)"/>
<path d="M0 0 C5.18516255 0.86419376 7.04145967 1.31031078 11.1796875 3.94140625 C12.571875 4.81635742 12.571875 4.81635742 13.9921875 5.70898438 C15.41917969 6.62647461 15.41917969 6.62647461 16.875 7.5625 C17.84953125 8.17802734 18.8240625 8.79355469 19.828125 9.42773438 C22.22449412 10.94308543 24.61469443 12.46731564 27 14 C26.40108776 17.4870306 26.14815973 17.88762376 23.12109375 20.18359375 C21.90099877 20.94744877 20.67261376 21.69817581 19.4375 22.4375 C18.80215332 22.82929443 18.16680664 23.22108887 17.51220703 23.62475586 C16.25055869 24.40230577 14.9862833 25.17561146 13.71923828 25.94433594 C11.56909865 27.2645864 9.4766372 28.66672577 7.375 30.0625 C4 32 4 32 0 32 C0 21.44 0 10.88 0 0 Z M4 6 C4 12.6 4 19.2 4 26 C6.26875 24.741875 8.5375 23.48375 10.875 22.1875 C11.94403564 21.60198364 11.94403564 21.60198364 13.03466797 21.00463867 C16.19582592 19.22428391 17.95747941 18.06378088 20 15 C17.5224077 13.49734474 15.04304235 11.99777081 12.5625 10.5 C11.85544922 10.07074219 11.14839844 9.64148438 10.41992188 9.19921875 C7.40028273 7.0002754 7.40028273 7.0002754 4 6 Z " fill="#FFFFFF" transform="translate(64,60)"/>
</svg>
